Coordinates
version=1
nRows=5
nColumns=40
inDegrees=yes

Units are S.I. units (second, meters, Newtons, ...)
Angles are in degrees.

endheader
time	pelvis_tilt	pelvis_list	pelvis_rotation	pelvis_tx	pelvis_ty	pelvis_tz	hip_flexion_r	hip_adduction_r	hip_rotation_r	knee_angle_r	knee_angle_r_beta	ankle_angle_r	subtalar_angle_r	mtp_angle_r	hip_flexion_l	hip_adduction_l	hip_rotation_l	knee_angle_l	knee_angle_l_beta	ankle_angle_l	subtalar_angle_l	mtp_angle_l	lumbar_extension	lumbar_bending	lumbar_rotation	arm_flex_r	arm_add_r	arm_rot_r	elbow_flex_r	pro_sup_r	wrist_flex_r	wrist_dev_r	arm_flex_l	arm_add_l	arm_rot_l	elbow_flex_l	pro_sup_l	wrist_flex_l	wrist_dev_l
     48.59000000	     -4.62307947	     -4.16336118	     -8.91056302	      0.92449232	      0.92577642	      0.52015748	     19.46366185	      3.72612051	     -7.39070001	     20.04108304	     20.04108304	      7.22309807	      2.29291764	     -4.77806428	      3.15428133	     -9.46405947	    -13.07513764	     30.69015668	     30.69015668	     16.64423381	    -14.17354819	     -0.18520191	     -9.77590793	      9.42902998	      0.57935904	     -7.47903436	    -14.33747586	    -24.11523376	     31.31210759	     46.37197097	      0.00000000	      0.00000000	     31.90707407	    -20.09357226	     -9.07007795	     69.38591413	     48.02842510	      0.00000000	      0.00000000
     48.61000000	     -4.45856248	     -4.21174653	     -8.23766711	      0.92526432	      0.92666762	      0.52429835	     18.61594588	      3.86193897	     -7.91482197	     19.76282550	     19.76282550	      7.71406554	      2.33092596	     -4.67404340	      4.67241884	    -10.26295154	    -12.01454931	     34.27189239	     34.27189239	     15.26350306	    -15.13964818	     -0.74988210	     -9.84103590	      9.40551453	      0.67899622	     -6.82288033	    -14.76363482	    -24.03408524	     31.53584704	     46.36382836	      0.00000000	      0.00000000	     31.14764108	    -19.41678742	     -8.81448413	     68.92580708	     47.99445286	      0.00000000	      0.00000000
     48.63000000	     -4.24796290	     -4.26295761	     -7.57797274	      0.92569665	      0.92748752	      0.52826466	     17.75504679	      4.00717220	     -8.42256840	     19.49966190	     19.49966190	      8.15810289	      2.34187990	     -4.63164565	      6.35442054	    -11.00749324	    -10.86711109	     38.07281958	     38.07281958	     13.81641964	    -16.13651448	     -1.04801833	     -9.98154728	      9.34756189	      0.82964470	     -6.03113976	    -15.20878777	    -23.95586934	     31.72792308	     46.35842059	      0.00000000	      0.00000000	     30.26757843	    -18.65965283	     -8.52193094	     68.40676866	     47.95630877	      0.00000000	      0.00000000
     48.65000000	     -4.23096593	     -4.32189114	     -6.83693607	      0.92578696	      0.92793143	      0.53187435	     17.12689572	      4.16582829	     -9.04045123	     19.21791039	     19.21791039	      8.48816924	      2.26095714	     -4.54679085	      8.50052836	    -11.68347826	     -9.46711845	     42.07003019	     42.07003019	     12.36797670	    -17.19104356	     -0.98764908	     -9.86127850	      9.35555904	      0.87230293	     -5.27250663	    -15.70536173	    -23.84121617	     31.74831734	     46.35787654	      0.00000000	      0.00000000	     29.10446381	    -17.86996053	     -8.18620374	     67.59678324	     47.90742404	      0.00000000	      0.00000000
     48.67000000	     -4.10253346	     -4.27838647	     -6.17045753	      0.92559974	      0.92829965	      0.53532909	     16.55020181	      4.22518915	     -9.40583834	     19.21919570	     19.21919570	      9.06976271	      2.02937966	     -4.39405894	     10.68306333	    -12.06360297	     -7.96801428	     46.20852686	     46.20852686	     11.96068645	    -17.83015379	      1.49114001	     -9.83938362	      9.15178530	      0.77145485	     -3.71508102	    -16.23050683	    -23.29401080	     30.88189216	     46.37317540	      0.00000000	      0.00000000	     28.02408871	    -17.19855373	     -7.78271533	     65.76834009	     47.82981924	      0.00000000	      0.00000000
